<svg width="40" height="40" viewBox="0 0 40 40" fill="none" xmlns="http://www.w3.org/2000/svg">
<path id="icon" d="M39.6263 32.4962L27.843 3.10694C26.8035 0.56184 23.8847 -0.669926 21.3275 0.368753L19.7865 0.997952C19.3717 1.16774 19.0002 1.4041 18.6536 1.6671C17.7407 0.678359 16.4446 0.0491594 14.9952 0.0491594H4.99785C2.24237 0.0508239 0 2.29131 0 5.04447V35.0064C0 37.7595 2.24237 40 4.99785 40H14.9935C17.749 40 19.9914 37.7595 19.9914 35.0064V14.857L28.8276 36.8989C29.8688 39.4673 32.8542 40.6608 35.3398 39.6305L36.8825 39.0013C39.3897 38.0458 40.6908 34.9481 39.6263 32.4962ZM22.6136 12.4451L27.2416 10.5608L34.1903 27.8921L29.5623 29.7763L22.6136 12.4451ZM21.0443 4.0807L22.5853 3.4515C23.4116 3.1086 24.4128 3.5031 24.7543 4.35535L26.0038 7.46972L21.3775 9.35399L20.133 6.24794C19.7865 5.39902 20.1963 4.42526 21.0476 4.07903L21.0443 4.0807ZM3.3319 11.7027H8.32975V28.3482H3.3319V11.7027ZM11.6616 11.7027H16.6595V28.3482H11.6616V11.7027ZM16.6595 5.04447V8.37357H11.6616V3.37992H14.9935C15.9115 3.37992 16.6595 4.12564 16.6595 5.04447ZM4.99785 3.37992H8.32975V8.37357H3.3319V5.04447C3.3319 4.12564 4.07991 3.37992 4.99785 3.37992ZM3.3319 35.0064V31.6773H8.32975V36.6709H4.99785C4.07991 36.6709 3.3319 35.9252 3.3319 35.0064ZM14.9935 36.6709H11.6616V31.6773H16.6595V35.0064C16.6595 35.9252 15.9115 36.6709 14.9935 36.6709ZM36.5326 35.0213C36.3594 35.4325 36.0378 35.7504 35.6263 35.9185L34.0837 36.5477C33.2324 36.8906 32.2594 36.4861 31.9179 35.6489L30.8034 32.8674L35.4314 30.9831L36.5393 33.748C36.7092 34.1591 36.7075 34.6135 36.5343 35.023L36.5326 35.0213Z" fill="#6A0FFF"/>
</svg>
