<svg width="39" height="20" viewBox="0 0 39 20" fill="none" xmlns="http://www.w3.org/2000/svg">
<path id="icon" d="M36.6356 6.66445L30.5033 0.468718C30.356 0.320197 30.1807 0.202313 29.9876 0.121865C29.7945 0.0414179 29.5874 0 29.3782 0C29.169 0 28.9619 0.0414179 28.7688 0.121865C28.5757 0.202313 28.4005 0.320197 28.2532 0.468718C27.958 0.76561 27.7924 1.16723 27.7924 1.58585C27.7924 2.00448 27.958 2.40609 28.2532 2.70298L33.8943 8.39165H1.58459C1.16433 8.39165 0.761282 8.55859 0.464114 8.85576C0.166947 9.15293 0 9.55597 0 9.97623C0 10.3965 0.166947 10.7995 0.464114 11.0967C0.761282 11.3939 1.16433 11.5608 1.58459 11.5608H33.9894L28.2532 17.2812C28.1046 17.4285 27.9868 17.6037 27.9063 17.7968C27.8259 17.9899 27.7844 18.197 27.7844 18.4062C27.7844 18.6154 27.8259 18.8225 27.9063 19.0156C27.9868 19.2087 28.1046 19.384 28.2532 19.5313C28.4005 19.6798 28.5757 19.7977 28.7688 19.8781C28.9619 19.9586 29.169 20 29.3782 20C29.5874 20 29.7945 19.9586 29.9876 19.8781C30.1807 19.7977 30.356 19.6798 30.5033 19.5313L36.6356 13.3831C37.5258 12.4918 38.0259 11.2835 38.0259 10.0238C38.0259 8.76402 37.5258 7.55578 36.6356 6.66445Z" fill="#405CEF"/>
</svg>
