<svg width="32" height="40" viewBox="0 0 32 40" fill="none" xmlns="http://www.w3.org/2000/svg">
<path id="icon" d="M8 17.179C8 17.9272 8.29721 18.6447 8.82625 19.1737C9.35529 19.7028 10.0728 20 10.821 20H21.18C21.928 19.9997 22.6453 19.7024 23.1741 19.1734C23.7029 18.6444 24 17.927 24 17.179C24 15.8054 23.4544 14.4881 22.4831 13.5169C21.5119 12.5456 20.1946 12 18.821 12H13.18C12.4998 11.9999 11.8262 12.1337 11.1978 12.3939C10.5693 12.6542 9.99827 13.0356 9.51725 13.5165C9.03623 13.9975 8.65466 14.5684 8.39432 15.1969C8.13399 15.8253 8 16.4988 8 17.179ZM13.179 14.5H18.821C19.5314 14.5003 20.2127 14.7826 20.715 15.285C21.2174 15.7873 21.4997 16.4686 21.5 17.179C21.5 17.2212 21.4917 17.2629 21.4756 17.3018C21.4594 17.3408 21.4358 17.3762 21.406 17.406C21.3762 17.4358 21.3408 17.4594 21.3018 17.4756C21.2629 17.4917 21.2212 17.5 21.179 17.5H10.82C10.7778 17.5 10.7361 17.4917 10.6972 17.4756C10.6582 17.4594 10.6228 17.4358 10.593 17.406C10.5632 17.3762 10.5396 17.3408 10.5234 17.3018C10.5073 17.2629 10.499 17.2212 10.499 17.179C10.4993 16.4686 10.7816 15.7873 11.284 15.285C11.7863 14.7826 12.4676 14.5003 13.178 14.5H13.179ZM16 0C14.0319 0.000140082 12.1328 0.725694 10.666 2.03793C9.19915 3.35017 8.26744 5.15702 8.049 7.113C3.239 9.872 0 15.058 0 21V34.75C0 37.65 2.35 40 5.25 40H26.75C29.65 40 32 37.65 32 34.75V21C32 15.058 28.76 9.872 23.951 7.113C23.7326 5.15702 22.8009 3.35017 21.334 2.03793C19.8672 0.725694 17.9681 0.000140082 16 0ZM29.5 24H2.5V21C2.5 13.544 8.544 7.5 16 7.5C23.456 7.5 29.5 13.544 29.5 21V24ZM8 26.5V29.75C8 30.0815 8.13169 30.3995 8.36612 30.6339C8.60054 30.8683 8.91848 31 9.25 31C9.58152 31 9.89946 30.8683 10.1339 30.6339C10.3683 30.3995 10.5 30.0815 10.5 29.75V26.5H29.5V34.75C29.5 35.4793 29.2103 36.1788 28.6945 36.6945C28.1788 37.2103 27.4793 37.5 26.75 37.5H5.25C4.52065 37.5 3.82118 37.2103 3.30546 36.6945C2.78973 36.1788 2.5 35.4793 2.5 34.75V26.5H8ZM16 5C14.236 5 12.539 5.285 10.952 5.813C11.3784 4.82833 12.0835 3.98986 12.9804 3.40085C13.8774 2.81185 14.927 2.49802 16 2.49802C17.073 2.49802 18.1226 2.81185 19.0196 3.40085C19.9165 3.98986 20.6216 4.82833 21.048 5.813C19.4199 5.27288 17.7154 4.99837 16 5Z" fill="#6A0FFF"/>
</svg>
