<svg width="46" height="46" viewBox="0 0 46 46" fill="none" xmlns="http://www.w3.org/2000/svg">
<path id="icon" d="M19.4581 1.51295L19.4597 1.51284C19.6735 1.49996 19.8895 1.49998 20.0979 1.5L20.122 1.5H25.88L25.9039 1.5C26.1106 1.49998 26.3265 1.49996 26.5403 1.51284L26.5422 1.51296C27.8687 1.59462 29.1433 2.0558 30.2181 2.84071C31.2926 3.62547 32.1227 4.70105 32.6143 5.94065M19.4581 1.51295L31.22 6.49367M19.4581 1.51295C18.1319 1.59438 16.8574 2.05519 15.7827 2.83961L16.667 4.05121L15.7827 2.83961C14.7087 3.62353 13.8787 4.69793 13.3866 5.93631L19.4581 1.51295ZM32.6143 5.94065L31.22 6.49367M32.6143 5.94065C32.6142 5.94027 32.614 5.93989 32.6139 5.93951L31.22 6.49367M32.6143 5.94065C32.6923 6.13684 32.7606 6.33602 32.833 6.56182M31.22 6.49367C31.282 6.64962 31.34 6.81772 31.41 7.03646L31.416 7.05671M32.833 6.56182C32.8291 6.55269 32.8257 6.54401 32.8227 6.53581L31.8569 6.89343L31.7136 6.94651L31.416 7.05671M32.833 6.56182C32.8349 6.56762 32.8368 6.57343 32.8386 6.57926L32.8436 6.59475L32.8482 6.61034L32.8542 6.63059L31.416 7.05671M32.833 6.56182C32.8831 6.67932 33.0043 6.87156 33.2087 7.0708M31.416 7.05671C31.584 7.51038 31.966 8.02684 32.502 8.44L32.6825 8.2075L32.6825 8.20582L32.6841 7.06962C32.8616 7.06987 33.0365 7.07023 33.2087 7.0708M15 26.3924L13.5 25.9368V26.3924H15ZM15 26.3924L15.4359 24.9571L15 24.8248V26.3924ZM31 26.3924L30.5641 24.9571L31 24.8248V26.3924ZM31 26.3924H32.5V25.9368L31 26.3924ZM17.436 7.99241C17.4468 7.95985 17.4566 7.93036 17.4655 7.90357C17.5207 7.73705 17.5413 7.67467 17.562 7.62582C17.6408 7.42716 17.7437 7.24043 17.8676 7.06962H18.824H19.7934H19.795H20.16H25.836H26.201H26.2012H28.1291C28.2524 7.23887 28.356 7.42522 28.436 7.62582M17.436 7.99241L17.432 8.00456M17.436 7.99241L17.7023 8.08081L17.432 8.00456M17.436 7.99241L17.7176 8.08514L18.1068 8.19494H18.862V8.20101V8.408L18.8756 8.41185L18.8716 8.42603L18.8666 8.44406M17.432 8.00456L17.428 8.01873L17.422 8.03494M17.432 8.00456L17.7565 8.11142L18.0101 8.19494H17.9079L17.872 8.18313L17.422 8.03494M17.422 8.03494L17.418 8.04709M17.422 8.03494L17.7498 8.15631L17.418 8.04709M17.418 8.04709L17.41 8.07139L17.402 8.0957L17.398 8.10582M17.418 8.04709L17.751 8.15676L17.8542 8.19494H17.7854H17.7853H17.7035H17.6988L17.5166 8.14096L17.398 8.10582M17.398 8.10582L17.392 8.12608L17.382 8.15038L17.372 8.17468L17.362 8.19494M17.398 8.10582L17.6212 8.19398L17.6236 8.19494H17.5594H17.4903H17.4212H17.413H17.362M17.362 8.19494V8.20101C17.312 8.32658 17.26 8.4481 17.202 8.56962H18.1209L17.4256 8.22633L17.3743 8.20101L17.362 8.19494ZM18.8666 8.44406C18.8651 8.44856 18.8635 8.45314 18.862 8.45779V8.46022M18.8666 8.44406L18.862 8.46022M18.8666 8.44406C18.8758 8.41618 18.884 8.39137 18.8914 8.3691C18.9134 8.30275 18.9279 8.25909 18.9395 8.22479C18.9442 8.2109 18.9474 8.20178 18.9493 8.19641M18.862 8.46022L18.8554 8.48352L18.8382 8.53002L18.8348 8.54036L18.8348 8.54037L18.8268 8.56468L18.8252 8.56962H18.8298L18.862 8.48867V8.46022ZM18.9493 8.19641L18.9501 8.19461L18.9564 8.17861C19.0291 7.99524 19.1506 7.83927 19.3042 7.72706C19.4577 7.61498 19.6374 7.55059 19.8224 7.53918C19.816 7.53952 19.8233 7.53883 19.8737 7.53843C19.9299 7.53799 20.0138 7.53797 20.16 7.53797H25.836C25.9822 7.53797 26.0661 7.53799 26.1223 7.53843C26.1551 7.53869 26.1696 7.53907 26.174 7.53921M18.9493 8.19641C18.9508 8.19209 18.9515 8.19019 18.9515 8.19019C18.9515 8.19019 18.9484 8.1986 18.9434 8.21042L18.9493 8.19641ZM26.174 7.53921C26.5436 7.56341 26.8799 7.79693 27.0341 8.16046M26.174 7.53921C26.1732 7.53916 26.1724 7.5391 26.1716 7.53905M26.174 7.53921C26.1748 7.53923 26.1753 7.53925 26.1755 7.53926C26.176 7.53928 26.1744 7.53922 26.1716 7.53905M27.0341 8.16046C27.0508 8.20768 27.0753 8.27815 27.1289 8.44203M27.0341 8.16046C27.032 8.15472 27.0301 8.14933 27.0283 8.14415C27.0259 8.1374 27.0236 8.13102 27.0214 8.12473L28.436 7.62582M27.0341 8.16046C27.037 8.16748 27.0399 8.17455 27.0428 8.18167L28.436 7.62582M27.1289 8.44203L27.1406 8.4836L27.1578 8.53M27.1289 8.44203L27.1244 8.42621L27.1204 8.41203L28.2589 8.09068L28.2766 8.08567L28.564 8.00456M27.1289 8.44203C27.1306 8.4472 27.1323 8.45245 27.134 8.45781L27.1352 8.46136L27.1392 8.47351L28.2374 8.11204L28.564 8.00456M27.1578 8.53L27.1612 8.54037L27.1616 8.54025L27.1613 8.53953L27.1578 8.53ZM27.1578 8.53L27.1532 8.51615L27.1532 8.51604L27.1492 8.50389L28.1257 8.1825L28.574 8.03494M28.574 8.03494L28.2462 8.15628L28.2456 8.15654L27.5903 8.39915L28.586 8.07139M28.574 8.03494L28.578 8.04709L28.586 8.07139M28.574 8.03494L28.568 8.01873L28.564 8.00456M28.586 8.07139L27.5887 8.39973L27.1673 8.55573L27.1616 8.54033L27.1612 8.54046L27.1692 8.56468L27.1708 8.56962H27.2584L28.0725 8.30167L28.2503 8.24314L28.2508 8.243L28.606 8.12608M28.586 8.07139L28.594 8.0957L28.598 8.10582L28.606 8.12608M28.606 8.12608L28.1973 8.28752L27.4833 8.56962H27.5951H27.6241L28.624 8.17468M28.606 8.12608L28.614 8.15038L28.624 8.17468M28.624 8.17468L27.6642 8.56962H27.6737L27.973 8.45522L28.6017 8.2149L28.6332 8.20284L28.636 8.20178L28.638 8.20101M28.624 8.17468L28.632 8.19494L28.636 8.20101H28.638M28.638 8.20101V8.56962H28.798C28.738 8.4481 28.686 8.32658 28.638 8.20101ZM28.564 8.00456L28.56 7.99241C28.4908 7.78045 28.4625 7.70072 28.4431 7.64583C28.4406 7.63883 28.4383 7.63224 28.436 7.62582M26.1716 7.53905L26.1712 7.53903L26.1716 7.53905ZM33.2087 7.0708C35.1023 7.077 36.6775 7.10786 37.9744 7.28852C39.4232 7.49033 40.6733 7.8961 41.739 8.77434L33.2087 7.0708ZM40.7731 24.9919L40.7719 24.9922L31.4359 27.8277L29.5 28.4156V29.1509V29.1512C29.5 29.2302 29.4963 29.3089 29.4889 29.3871L29.5877 28.4247L30.5421 28.1349L40.5521 25.0949L42.5074 24.5011L42.4879 26.5444C42.4579 29.7038 42.3522 32.8238 41.9619 35.4239C41.7664 36.7261 41.4929 37.9465 41.0988 39.0011C40.7085 40.0451 40.164 41.0248 39.3671 41.7416C37.7204 43.2241 35.6455 43.8789 33.0553 44.1924C30.5141 44.5 27.2578 44.5 23.1036 44.5H23H22.8964C18.7422 44.5 15.4859 44.5 12.9447 44.1924C10.3542 43.8788 8.27914 43.2239 6.63234 41.7411L40.7731 24.9919ZM40.7731 24.9919L40.8385 24.9719C41.3794 24.8072 41.8871 24.6526 42.3018 24.4788C42.7635 24.2852 43.2328 24.0203 43.6279 23.5696L43.6288 23.5686C43.7581 23.4208 43.8748 23.2625 43.9777 23.0952L43.9808 23.0901M40.7731 24.9919L43.9808 23.0901M14.6184 27.8442L14.5641 27.8277L5.22809 24.9922L5.22686 24.9919L5.15688 24.9705C4.61803 24.8065 4.11148 24.6522 3.69782 24.4789C3.23661 24.2857 2.76543 24.0204 2.37012 23.5674M14.6184 27.8442L3.17604 9.87293C2.25411 11.0206 1.86246 12.3777 1.67825 13.9651C1.49995 15.5016 1.49997 17.4345 1.5 19.836L1.5 19.9296L1.5 19.9917C1.49994 20.5681 1.49988 21.1049 1.54491 21.5562C1.5946 22.0544 1.70858 22.5805 2.0192 23.0901L2.01919 23.0901L2.02274 23.0959C2.12525 23.2624 2.24143 23.4201 2.37012 23.5674M14.6184 27.8442L14.5895 27.8735L5.44823 25.095L3.49262 24.5005L3.51207 26.5444C3.54213 29.7038 3.64784 32.8233 4.03812 35.4232C4.23358 36.7252 4.5071 37.9456 4.90123 39.0002C5.29143 40.0443 5.83582 41.0239 6.63226 41.741L14.6184 27.8442ZM2.37012 23.5674C2.37031 23.5676 2.37051 23.5678 2.3707 23.568L3.5 22.5808L2.36953 23.5667C2.36973 23.5669 2.36992 23.5671 2.37012 23.5674ZM43.9808 23.0901C44.2914 22.5805 44.4054 22.0544 44.4551 21.5562C44.5001 21.1049 44.5001 20.5681 44.5 19.9917L44.5 19.9296V19.836C44.5 17.4345 44.5001 15.5016 44.3218 13.9651C44.1376 12.3781 43.7461 11.0213 42.8246 9.87376M43.9808 23.0901L42.8246 9.87376M42.8246 9.87376C42.5016 9.47063 42.1387 9.10317 41.7391 8.77441L42.8246 9.87376ZM26.266 6.04203L26.266 6.04205L26.266 6.04203ZM19.4771 32.0887L18.0775 31.5218C18.0774 31.5217 18.0773 31.5217 18.0771 31.5216C17.6565 31.351 17.2873 31.0662 17.011 30.6957C16.739 30.331 16.5677 29.8974 16.5166 29.44C16.5623 29.8358 16.7012 30.2173 16.9247 30.5516L18.1718 29.7182L16.9247 30.5516C17.2022 30.967 17.5982 31.2915 18.0639 31.4805L18.0649 31.4809L19.4647 32.0479C19.4647 32.048 19.4648 32.048 19.4648 32.048C21.7338 32.9673 24.2662 32.9673 26.5352 32.048C26.5352 32.048 26.5353 32.048 26.5353 32.0479L27.9352 31.4809L27.9361 31.4805C28.4018 31.2915 28.7978 30.967 29.0753 30.5516L27.8282 29.7182L29.0753 30.5516C29.299 30.2169 29.438 29.835 29.4835 29.4388C29.4326 29.8966 29.2612 30.3307 28.989 30.6957C28.7127 31.0662 28.3435 31.351 27.9228 31.5216C27.9227 31.5217 27.9226 31.5217 27.9225 31.5218L26.5229 32.0887L26.5228 32.0888C24.2611 33.0051 21.7389 33.0051 19.4772 32.0888L19.4771 32.0887ZM16.5 29.1512C16.5 29.2302 16.5037 29.3089 16.5111 29.387L16.4085 28.3878L16.5 28.4156V29.1509V29.1512ZM28.7744 23.0021L27.7071 24.0561L28.7744 23.0021C28.3071 22.5289 27.6692 22.2595 27 22.2595H19C18.3308 22.2595 17.6929 22.5289 17.2256 23.0021L18.2929 24.0561L17.2256 23.0021C16.7589 23.4748 16.5 24.1118 16.5 24.7722C16.5 24.0896 16.7679 23.4388 17.2389 22.9619C17.7092 22.4856 18.3431 22.2215 19 22.2215H27C27.6569 22.2215 28.2908 22.4856 28.7611 22.9619C29.2321 23.4388 29.5 24.0896 29.5 24.7722C29.5 24.1118 29.2411 23.4748 28.7744 23.0021ZM12.5821 7.25364L12.5801 7.25517C12.5533 7.27599 12.5216 7.29876 12.4807 7.32641L13.32 8.56962L13.3195 8.20749L13.3195 8.20669L13.3179 7.06962C13.1399 7.06987 12.9647 7.07024 12.7921 7.07081C12.7282 7.13334 12.658 7.1949 12.5821 7.25364ZM13.1699 6.55512C13.1663 6.56604 13.1628 6.5769 13.1592 6.58771L14.584 7.05671L13.1761 6.53924C13.1743 6.54415 13.1722 6.54944 13.1699 6.55512ZM5.214 9.93266L4.26178 8.77366L4.26146 8.77392C4.2612 8.77414 4.26093 8.77435 4.26067 8.77457L5.214 9.93266Z" stroke="#6A0FFF" stroke-width="3"/>
</svg>
