<svg width="41" height="40" viewBox="0 0 41 40" fill="none" xmlns="http://www.w3.org/2000/svg">
<path id="icon" d="M39.5961 15.0567C38.6474 13.9617 37.2725 13.3333 35.8227 13.3333H35.6796C34.849 5.84333 28.4906 0 20.7924 0C13.0941 0 6.73574 5.84333 5.90516 13.3333H5.81195C4.36384 13.3333 2.99064 13.9617 2.04021 15.0567C1.08979 16.1517 0.66368 17.6033 0.868413 19.0417L2.63444 31.415C3.33352 36.31 7.58463 40 12.5215 40H29.1148C34.0517 40 38.3028 36.3083 39.0019 31.415L40.7679 19.0417C40.9727 17.605 40.5449 16.1533 39.5961 15.0567ZM20.7924 3.33333C26.6514 3.33333 31.5134 7.68833 32.324 13.3333H9.26078C10.0714 7.68833 14.9334 3.33333 20.7924 3.33333ZM37.4722 18.57L35.7062 30.9433C35.2402 34.2067 32.4072 36.6683 29.1148 36.6683H12.5215C9.22749 36.6683 6.39452 34.2067 5.93013 30.9433L4.16411 18.57C4.0942 18.085 4.23401 17.6133 4.5536 17.2417C4.87484 16.87 5.32093 16.6667 5.81029 16.6667H35.8227C36.3121 16.6667 36.7582 16.87 37.0811 17.2417C37.4007 17.6133 37.5421 18.085 37.4722 18.57ZM22.4569 21.6667V31.6667C22.4569 32.5883 21.7128 33.3333 20.7924 33.3333C19.8719 33.3333 19.1279 32.5883 19.1279 31.6667V21.6667C19.1279 20.745 19.8719 20 20.7924 20C21.7128 20 22.4569 20.745 22.4569 21.6667ZM30.7793 21.6667V31.6667C30.7793 32.5883 30.0353 33.3333 29.1148 33.3333C28.1944 33.3333 27.4503 32.5883 27.4503 31.6667V21.6667C27.4503 20.745 28.1944 20 29.1148 20C30.0353 20 30.7793 20.745 30.7793 21.6667ZM14.1344 21.6667V31.6667C14.1344 32.5883 13.3904 33.3333 12.4699 33.3333C11.5495 33.3333 10.8054 32.5883 10.8054 31.6667V21.6667C10.8054 20.745 11.5495 20 12.4699 20C13.3904 20 14.1344 20.745 14.1344 21.6667Z" fill="#5A8F15"/>
</svg>
