<svg width="40" height="40" viewBox="0 0 40 40" fill="none" xmlns="http://www.w3.org/2000/svg">
<path id="icon" d="M30.0008 20C30.0008 20.92 29.2542 21.6667 28.3343 21.6667C27.4144 21.6667 26.6678 20.92 26.6678 20C26.6678 19.08 27.4144 18.3333 28.3343 18.3333C29.2542 18.3333 30.0008 19.08 30.0008 20ZM11.669 8.33333C12.589 8.33333 13.3356 7.58833 13.3356 6.66667C13.3356 4.82833 14.8304 3.33333 16.6686 3.33333C18.5068 3.33333 20.0017 4.82833 20.0017 6.66667C20.0017 7.58833 20.7483 8.33333 21.6682 8.33333C22.5881 8.33333 23.3347 7.58833 23.3347 6.66667C23.3347 2.99 20.345 0 16.6686 0C12.9922 0 10.0025 2.99 10.0025 6.66667C10.0025 7.58833 10.7491 8.33333 11.669 8.33333ZM40 21.6667V25C40 26.8433 38.7534 27.965 37.3869 28.2567C36.2853 31.0133 34.2671 33.3417 31.6674 34.8467V35C31.6674 37.7567 29.4242 40 26.6678 40C24.4946 40 22.6414 38.6067 21.9532 36.6667H18.0485C17.3602 38.6067 15.507 40 13.3339 40C10.5775 40 8.3343 37.7567 8.3343 35V34.8683C3.943 32.3367 1.36489 27.5733 1.69653 22.45C1.80152 20.82 2.21315 19.2717 2.87143 17.8567C1.17657 17.055 0 15.33 0 13.3333C0 10.5767 2.24315 8.33333 4.99958 8.33333C5.91951 8.33333 6.66611 9.07833 6.66611 10C6.66611 10.9217 5.91951 11.6667 4.99958 11.6667C4.07966 11.6667 3.33306 12.4133 3.33306 13.3333C3.33306 14.1517 3.92634 14.8333 4.70461 14.9733C7.2394 11.935 11.1257 10 15.442 10H24.3796C25.6012 7.53667 27.8827 5.81333 30.9241 5.09C31.909 4.85833 32.9289 5.085 33.7255 5.71333C34.5338 6.35333 34.9988 7.31 34.9988 8.34V14.5317C36.012 15.6833 36.8219 17 37.3852 18.41C38.7534 18.7017 40 19.8233 40 21.6667ZM36.6669 21.6667H36.177C35.4404 21.6667 34.7904 21.1817 34.5805 20.475C34.1238 18.9417 33.2806 17.515 32.1423 16.3467C31.8373 16.035 31.6674 15.6167 31.6674 15.1833V8.34C30.0425 8.72667 27.8927 9.72333 27.0611 12.2317C26.8261 12.9367 26.1395 13.4217 25.4112 13.3717C25.2979 13.3667 15.4454 13.335 15.4454 13.335C9.94084 13.335 5.36289 17.4333 5.02458 22.6667C4.75794 26.7817 6.99275 30.5867 10.7191 32.3583C11.3007 32.635 11.669 33.2217 11.669 33.8633V35.0017C11.669 35.9217 12.4173 36.6683 13.3356 36.6683C14.2538 36.6683 15.0021 35.9217 15.0021 35.0017C15.0021 34.0817 15.7487 33.335 16.6686 33.335H23.3347C24.2546 33.335 25.0012 34.08 25.0012 35.0017C25.0012 35.9233 25.7495 36.6683 26.6678 36.6683C27.586 36.6683 28.3343 35.9217 28.3343 35.0017V33.845C28.3343 33.2033 28.7026 32.6183 29.2826 32.3417C31.8523 31.115 33.7822 28.8733 34.5805 26.195C34.7904 25.4883 35.4404 25.0033 36.177 25.0033H36.6669V21.67V21.6667Z" fill="#6A0FFF"/>
</svg>
