<svg width="41" height="40" viewBox="0 0 41 40" fill="none" xmlns="http://www.w3.org/2000/svg">
<path id="icon" d="M32.4848 0H9.15145C4.55145 0 0.818115 4.07273 0.818115 9.09091V30.9091C0.818115 35.9273 4.55145 40 9.15145 40H32.4848C37.0848 40 40.8181 35.9273 40.8181 30.9091V9.09091C40.8181 4.07273 37.0848 0 32.4848 0ZM9.15145 3.63636H32.4848C35.2348 3.63636 37.4848 6.09091 37.4848 9.09091V12.7273H4.15145V9.09091C4.15145 6.09091 6.40145 3.63636 9.15145 3.63636ZM32.4848 36.3636H9.15145C6.40145 36.3636 4.15145 33.9091 4.15145 30.9091V16.3636H37.4848V30.9091C37.4848 33.9091 35.2348 36.3636 32.4848 36.3636ZM30.8181 8.18182C30.8181 6.67273 31.9348 5.45455 33.3181 5.45455C34.7014 5.45455 35.8181 6.67273 35.8181 8.18182C35.8181 9.69091 34.7014 10.9091 33.3181 10.9091C31.9348 10.9091 30.8181 9.69091 30.8181 8.18182ZM24.1514 8.18182C24.1514 6.67273 25.2681 5.45455 26.6514 5.45455C28.0348 5.45455 29.1514 6.67273 29.1514 8.18182C29.1514 9.69091 28.0348 10.9091 26.6514 10.9091C25.2681 10.9091 24.1514 9.69091 24.1514 8.18182ZM17.4848 8.18182C17.4848 6.67273 18.6014 5.45455 19.9848 5.45455C21.3681 5.45455 22.4848 6.67273 22.4848 8.18182C22.4848 9.69091 21.3681 10.9091 19.9848 10.9091C18.6014 10.9091 17.4848 9.69091 17.4848 8.18182Z" fill="#5A8F15"/>
</svg>
