<svg width="30" height="30" viewBox="0 0 30 30" fill="none" xmlns="http://www.w3.org/2000/svg">
<g id="discord">
<path id="background" d="M15 0C6.71572 0 0 6.71572 0 15C0 23.2843 6.71572 30 15 30C23.2843 30 30 23.2843 30 15C30 6.71572 23.2843 0 15 0Z" fill="#5A8F15"/>
<path id="icon" d="M20.0122 10.8375C19.1581 10.4406 18.2564 10.159 17.3302 10C17.2035 10.23 17.0888 10.4666 16.9867 10.7088C16.0001 10.5579 14.9968 10.5579 14.0102 10.7088C13.908 10.4666 13.7933 10.23 13.6666 10C12.7398 10.1604 11.8376 10.4426 10.9826 10.8396C9.28527 13.3883 8.82514 15.8738 9.0552 18.324C10.0492 19.0694 11.1618 19.6363 12.3446 20C12.6109 19.6364 12.8466 19.2508 13.0491 18.847C12.6644 18.7012 12.2932 18.5213 11.9397 18.3095C12.0327 18.241 12.1237 18.1704 12.2116 18.1019C13.2404 18.5929 14.3632 18.8475 15.5 18.8475C16.6368 18.8475 17.7596 18.5929 18.7883 18.1019C18.8773 18.1756 18.9683 18.2462 19.0603 18.3095C18.7061 18.5217 18.3342 18.7019 17.9488 18.8481C18.1511 19.2516 18.3868 19.637 18.6533 20C19.8371 19.6377 20.9506 19.0711 21.9447 18.325C22.2147 15.4836 21.4836 13.021 20.0122 10.8375ZM13.3405 16.8171C12.6994 16.8171 12.1697 16.2266 12.1697 15.5002C12.1697 14.7738 12.681 14.1781 13.3384 14.1781C13.9959 14.1781 14.5215 14.7738 14.5102 15.5002C14.499 16.2266 13.9938 16.8171 13.3405 16.8171ZM17.6595 16.8171C17.0174 16.8171 16.4897 16.2266 16.4897 15.5002C16.4897 14.7738 17.001 14.1781 17.6595 14.1781C18.318 14.1781 18.8394 14.7738 18.8282 15.5002C18.8169 16.2266 18.3129 16.8171 17.6595 16.8171Z" fill="#ECE7E6"/>
</g>
</svg>
