<svg width="65" height="50" viewBox="0 0 65 50" fill="none" xmlns="http://www.w3.org/2000/svg">
<path d="M55.0612 4.18749C50.8536 2.23125 46.3547 0.809536 41.6512 0C41.0735 1.0378 40.3987 2.43366 39.9334 3.54406C34.9334 2.79685 29.9795 2.79685 25.0715 3.54406C24.6063 2.43366 23.9161 1.0378 23.3333 0C18.6247 0.809536 14.1206 2.23647 9.91302 4.19785C1.42632 16.9417 -0.87428 29.3691 0.276024 41.62C5.90485 45.797 11.3599 48.3344 16.7228 49.9949C18.0469 48.1839 19.2279 46.2589 20.2453 44.23C18.3077 43.4984 16.4518 42.5955 14.6983 41.5474C15.1635 41.2049 15.6186 40.8468 16.0582 40.4784C26.7534 45.4494 38.3741 45.4494 48.9416 40.4784C49.3864 40.8468 49.8413 41.2049 50.3014 41.5474C48.5428 42.6007 46.6819 43.5035 44.7443 44.2352C45.7616 46.2589 46.9375 48.1891 48.2667 50C53.6348 48.3396 59.0949 45.8022 64.7237 41.62C66.0734 27.4181 62.418 15.1049 55.0612 4.18749ZM21.7024 34.0858C18.4917 34.0858 15.8588 31.1073 15.8588 27.4803C15.8588 23.8533 18.4355 20.8697 21.7024 20.8697C24.9693 20.8697 27.6021 23.8481 27.5459 27.4803C27.551 31.1073 24.9693 34.0858 21.7024 34.0858ZM43.2974 34.0858C40.0868 34.0858 37.4539 31.1073 37.4539 27.4803C37.4539 23.8533 40.0305 20.8697 43.2974 20.8697C46.5643 20.8697 49.1972 23.8481 49.141 27.4803C49.141 31.1073 46.5643 34.0858 43.2974 34.0858Z" fill="#405CEF"/>
</svg>
