<svg width="33" height="25" viewBox="0 0 33 25" fill="none" xmlns="http://www.w3.org/2000/svg">
<path id="discord" d="M27.607 2.09374C25.5356 1.11562 23.3208 0.404768 21.0052 0C20.7208 0.518898 20.3886 1.21683 20.1595 1.77203C17.698 1.39843 15.2591 1.39843 12.8429 1.77203C12.6139 1.21683 12.2741 0.518898 11.9871 0C9.66908 0.404768 7.45167 1.11824 5.38026 2.09892C1.20219 8.47087 0.0695851 14.6845 0.635889 20.81C3.407 22.8985 6.09255 24.1672 8.73277 24.9974C9.38465 24.092 9.96605 23.1294 10.4669 22.115C9.513 21.7492 8.59937 21.2978 7.7361 20.7737C7.96512 20.6024 8.18914 20.4234 8.40557 20.2392C13.6709 22.7247 19.3919 22.7247 24.5943 20.2392C24.8133 20.4234 25.0373 20.6024 25.2638 20.7737C24.398 21.3003 23.4818 21.7518 22.5279 22.1176C23.0288 23.1294 23.6077 24.0946 24.2621 25C26.9048 24.1698 29.5929 22.9011 32.364 20.81C33.0285 13.709 31.2289 7.55243 27.607 2.09374ZM11.1842 17.0429C9.60363 17.0429 8.3074 15.5537 8.3074 13.7402C8.3074 11.9266 9.57595 10.4349 11.1842 10.4349C12.7926 10.4349 14.0887 11.924 14.0611 13.7402C14.0636 15.5537 12.7926 17.0429 11.1842 17.0429ZM21.8157 17.0429C20.235 17.0429 18.9388 15.5537 18.9388 13.7402C18.9388 11.9266 20.2073 10.4349 21.8157 10.4349C23.4239 10.4349 24.7202 11.924 24.6925 13.7402C24.6925 15.5537 23.4239 17.0429 21.8157 17.0429Z" fill="#405CEF"/>
</svg>
