<svg width="41" height="40" viewBox="0 0 41 40" fill="none" xmlns="http://www.w3.org/2000/svg">
<g id="icon">
<path d="M39.1901 14.6606C38.2066 13.7609 36.9231 13.3111 35.5729 13.3611C34.2394 13.4277 33.0059 14.0108 32.0891 14.9938L26.7217 20.8746C25.8049 19.3586 24.138 18.3424 22.2378 18.3424H7.48571C3.80186 18.3424 0.818115 21.3244 0.818115 25.0062V33.3361C0.818115 37.0179 3.80186 40 7.48571 40H15.7535C20.5042 40 25.0381 37.9675 28.2052 34.419L39.5568 21.691C41.3737 19.6418 41.2071 16.4931 39.1901 14.6439V14.6606ZM37.0731 19.4919L25.7216 32.2199C23.1879 35.0521 19.5707 36.6847 15.7702 36.6847H7.48571C5.65212 36.6847 4.15191 35.1853 4.15191 33.3528V25.0229C4.15191 23.1903 5.65212 21.691 7.48571 21.691H22.2544C23.3046 21.691 24.1547 22.5406 24.1547 23.5902C24.1547 24.5231 23.4546 25.3394 22.5211 25.4727L13.9199 26.7055C13.0031 26.8388 12.3697 27.6718 12.5031 28.5881C12.6364 29.5044 13.4865 30.1374 14.3867 30.0042L22.9879 28.7713C24.9548 28.4881 26.5384 27.122 27.1718 25.3394L34.5561 17.2428C34.8562 16.9096 35.2729 16.7097 35.723 16.693C36.173 16.693 36.6064 16.8263 36.9398 17.1262C37.6232 17.7426 37.6732 18.8088 37.0565 19.4919H37.0731Z" fill="#5A8F15"/>
<path d="M15.8202 16.6764H16.4536C18.8706 16.6764 20.8209 14.7105 20.8209 12.3115C20.8209 10.1624 19.2873 8.34652 17.1704 7.99667L11.703 7.08038C11.2029 6.99709 10.8362 6.56393 10.8362 6.04748C10.8362 5.48105 11.3029 5.01458 11.8696 5.01458H16.2703C16.8703 5.01458 17.4204 5.33111 17.7205 5.84756C18.1705 6.64723 19.1873 6.91379 20.0041 6.44731C20.8042 5.98084 21.0709 4.9646 20.6042 4.16493C19.7207 2.63224 18.0538 1.66597 16.2703 1.66597H15.8202C15.8202 0.749688 15.0701 0 14.1533 0C13.2365 0 12.4864 0.749688 12.4864 1.66597H11.853C9.43598 1.66597 7.48571 3.63182 7.48571 6.03082C7.48571 8.17993 9.01925 9.99584 11.1362 10.3457L16.6036 11.262C17.1037 11.3453 17.4704 11.7784 17.4704 12.2949C17.4704 12.8613 17.0037 13.3278 16.4369 13.3278H12.0363C11.4363 13.3278 10.8862 13.0112 10.5861 12.4948C10.1194 11.6951 9.1026 11.4286 8.30249 11.895C7.50238 12.3615 7.23567 13.3778 7.7024 14.1774C8.58586 15.7101 10.2528 16.6764 12.0363 16.6764H12.4864C12.4864 17.5927 13.2365 18.3424 14.1533 18.3424C15.0701 18.3424 15.8202 17.5927 15.8202 16.6764Z" fill="#5A8F15"/>
</g>
</svg>
