<svg width="41" height="40" viewBox="0 0 41 40" fill="none" xmlns="http://www.w3.org/2000/svg">
<path id="icon" d="M37.7938 30.6027C35.8434 32.9176 33.2908 34.6742 30.4054 35.6872C27.52 36.7001 24.4088 36.9317 21.4001 36.3576C18.3914 35.7835 15.5968 34.425 13.3112 32.4255C11.0256 30.4259 9.33372 27.8594 8.41418 24.9969H26.3597C26.8113 24.9969 27.2444 24.8213 27.5637 24.5086C27.8831 24.196 28.0625 23.7721 28.0625 23.33C28.0625 22.8879 27.8831 22.4639 27.5637 22.1513C27.2444 21.8387 26.8113 21.6631 26.3597 21.6631H7.71604C7.60025 20.5547 7.60025 19.4376 7.71604 18.3292H26.3597C26.8113 18.3292 27.2444 18.1536 27.5637 17.841C27.8831 17.5284 28.0625 17.1044 28.0625 16.6623C28.0625 16.2202 27.8831 15.7963 27.5637 15.4837C27.2444 15.171 26.8113 14.9954 26.3597 14.9954H8.41418C9.33372 12.1329 11.0256 9.56639 13.3112 7.56682C15.5968 5.56725 18.3914 4.20875 21.4001 3.63467C24.4088 3.0606 27.52 3.29223 30.4054 4.30514C33.2908 5.31805 35.8434 7.07466 37.7938 9.38961C37.9362 9.55838 38.1113 9.69804 38.3088 9.8006C38.5064 9.90317 38.7227 9.96663 38.9453 9.98738C39.1679 10.0081 39.3926 9.98573 39.6063 9.92149C39.8201 9.85725 40.0189 9.75242 40.1913 9.61298C40.3637 9.47354 40.5064 9.30222 40.6111 9.10881C40.7159 8.91539 40.7808 8.70367 40.8019 8.48573C40.8231 8.26779 40.8003 8.0479 40.7346 7.83862C40.669 7.62933 40.5619 7.43474 40.4195 7.26597C38.0231 4.42271 34.8701 2.28366 31.3091 1.0854C27.7482 -0.112869 23.9181 -0.323668 20.2424 0.476312C16.5668 1.27629 13.1887 3.05588 10.4818 5.61827C7.77498 8.18066 5.84481 11.426 4.90477 14.9954H2.52089C2.06928 14.9954 1.63618 15.171 1.31685 15.4837C0.997514 15.7963 0.818115 16.2202 0.818115 16.6623C0.818115 17.1044 0.997514 17.5284 1.31685 17.841C1.63618 18.1536 2.06928 18.3292 2.52089 18.3292H4.3105C4.26282 18.881 4.22366 19.4327 4.22366 19.9961C4.22366 20.5596 4.26282 21.1113 4.3105 21.6631H2.52089C2.06928 21.6631 1.63618 21.8387 1.31685 22.1513C0.997514 22.4639 0.818115 22.8879 0.818115 23.33C0.818115 23.7721 0.997514 24.196 1.31685 24.5086C1.63618 24.8213 2.06928 24.9969 2.52089 24.9969H4.90477C5.84374 28.5681 7.7738 31.8154 10.4813 34.3793C13.1888 36.9432 16.5682 38.7238 20.2455 39.5239C23.9227 40.324 27.7544 40.1125 31.3165 38.9128C34.8785 37.7131 38.0321 35.5719 40.428 32.7263C40.7157 32.3855 40.8532 31.9467 40.8105 31.5066C40.7677 31.0664 40.548 30.6609 40.1998 30.3793C39.8516 30.0977 39.4034 29.963 38.9538 30.0049C38.5042 30.0468 38.09 30.2618 37.8023 30.6027H37.7938Z" fill="#5A8F15"/>
</svg>
