<svg width="41" height="40" viewBox="0 0 41 40" fill="none" xmlns="http://www.w3.org/2000/svg">
<path id="icon" d="M39.3969 16.3246L27.5154 4.32189C22.2373 -0.891173 16.8775 -0.279539 14.1418 0.552084C12.9948 0.902066 12.1396 1.80368 11.8562 2.96362C11.5761 4.1119 11.9112 5.29017 12.7547 6.12346L20.2251 13.6331L2.25693 31.4871C0.321412 33.4503 0.341417 36.6202 2.30028 38.5551C3.2422 39.4884 4.4892 40 5.81455 40H5.84456C7.18159 39.9917 8.43526 39.465 9.36217 38.5234L27.2786 20.7227L31.088 24.5525C32.0332 25.5058 33.2936 26.0307 34.6373 26.0307H34.6456C35.991 26.0307 37.2513 25.5008 38.1949 24.5441L39.3836 23.3425C41.2907 21.416 41.2974 18.2695 39.3969 16.3246ZM15.1137 3.74025C15.9039 3.49859 16.8242 3.32694 17.8378 3.32694C19.9884 3.32694 22.554 4.1069 25.1581 6.67843L33.4336 15.0397L29.886 18.6178L15.112 3.76691L15.1137 3.74025ZM7.00154 36.1702C6.68812 36.4869 6.27134 36.6635 5.82789 36.6668C5.3661 36.6402 4.96266 36.4985 4.64591 36.1835C3.99073 35.5386 3.98573 34.482 4.61923 33.8387L22.5774 15.9963L24.928 18.3595L7.00154 36.1702ZM37.0129 20.9993L35.8226 22.2026C35.5092 22.5209 35.0891 22.6976 34.6406 22.6976H34.6373C34.1888 22.6976 33.7687 22.5243 33.4536 22.2043L32.2366 20.981L35.7793 17.4095L37.0196 18.6628C37.6514 19.3094 37.6481 20.3577 37.0129 20.9993Z" fill="#5A8F15"/>
</svg>
