<svg width="100" height="84" viewBox="0 0 100 84" fill="none" xmlns="http://www.w3.org/2000/svg">
<g id="main">
<rect id="cursor" opacity="0.03" width="100" height="84" fill="#E9E0F0"/>
<path id="icon" d="M68.535 35.8072L55.8933 23.1563C54.3287 21.5953 52.2094 20.7188 50 20.7188C47.7906 20.7188 45.6713 21.5953 44.1067 23.1563L31.465 35.8072C30.9991 36.2704 30.6296 36.8216 30.3782 37.4288C30.1267 38.036 29.9981 38.687 30 39.3443V55.7158C30 57.0426 30.5268 58.3152 31.4645 59.2534C32.4022 60.1917 33.6739 60.7188 35 60.7188H65C66.3261 60.7188 67.5978 60.1917 68.5355 59.2534C69.4732 58.3152 70 57.0426 70 55.7158V39.3443C70.0018 38.687 69.8733 38.036 69.6218 37.4288C69.3704 36.8216 69.0009 36.2704 68.535 35.8072ZM55 57.3834H45V50.8228C45 49.4959 45.5268 48.2234 46.4645 47.2852C47.4022 46.3469 48.6739 45.8198 50 45.8198C51.3261 45.8198 52.5979 46.3469 53.5355 47.2852C54.4732 48.2234 55 49.4959 55 50.8228V57.3834ZM66.6666 55.7158C66.6666 56.158 66.4911 56.5822 66.1785 56.895C65.8659 57.2077 65.442 57.3834 65 57.3834H58.3333V50.8228C58.3333 48.6114 57.4554 46.4905 55.8926 44.9267C54.3298 43.363 52.2101 42.4845 50 42.4845C47.7899 42.4845 45.6703 43.363 44.1074 44.9267C42.5446 46.4905 41.6667 48.6114 41.6667 50.8228V57.3834H35C34.558 57.3834 34.1341 57.2077 33.8215 56.895C33.5089 56.5822 33.3334 56.158 33.3334 55.7158V39.3443C33.3349 38.9023 33.5103 38.4787 33.8217 38.1652L46.4633 25.5193C47.4028 24.5837 48.6744 24.0584 50 24.0584C51.3256 24.0584 52.5972 24.5837 53.5367 25.5193L66.1783 38.1702C66.4885 38.4825 66.6638 38.9041 66.6666 39.3443V55.7158Z" fill="#5A8F15"/>
</g>
</svg>
