<svg width="41" height="40" viewBox="0 0 41 40" fill="none" xmlns="http://www.w3.org/2000/svg">
<path id="icon" d="M20.8181 8.33333C20.1551 8.33333 19.5192 8.06994 19.0503 7.6011C18.5815 7.13226 18.3181 6.49637 18.3181 5.83333V2.5C18.3181 1.83696 18.5815 1.20107 19.0503 0.732233C19.5192 0.263392 20.1551 0 20.8181 0C21.4812 0 22.117 0.263392 22.5859 0.732233C23.0547 1.20107 23.3181 1.83696 23.3181 2.5V5.83333C23.3181 6.49637 23.0547 7.13226 22.5859 7.6011C22.117 8.06994 21.4812 8.33333 20.8181 8.33333ZM23.3181 37.5V34.1667C23.3181 33.5036 23.0547 32.8677 22.5859 32.3989C22.117 31.9301 21.4812 31.6667 20.8181 31.6667C20.1551 31.6667 19.5192 31.9301 19.0503 32.3989C18.5815 32.8677 18.3181 33.5036 18.3181 34.1667V37.5C18.3181 38.163 18.5815 38.7989 19.0503 39.2678C19.5192 39.7366 20.1551 40 20.8181 40C21.4812 40 22.117 39.7366 22.5859 39.2678C23.0547 38.7989 23.3181 38.163 23.3181 37.5ZM9.15145 20C9.15145 19.337 8.88806 18.7011 8.41922 18.2322C7.95037 17.7634 7.31449 17.5 6.65145 17.5H3.31812C2.65507 17.5 2.01919 17.7634 1.55035 18.2322C1.08151 18.7011 0.818115 19.337 0.818115 20C0.818115 20.663 1.08151 21.2989 1.55035 21.7678C2.01919 22.2366 2.65507 22.5 3.31812 22.5H6.65145C7.31449 22.5 7.95037 22.2366 8.41922 21.7678C8.88806 21.2989 9.15145 20.663 9.15145 20ZM40.8181 20C40.8181 19.337 40.5547 18.7011 40.0859 18.2322C39.617 17.7634 38.9812 17.5 38.3181 17.5H34.9848C34.3217 17.5 33.6859 17.7634 33.217 18.2322C32.7482 18.7011 32.4848 19.337 32.4848 20C32.4848 20.663 32.7482 21.2989 33.217 21.7678C33.6859 22.2366 34.3217 22.5 34.9848 22.5H38.3181C38.9812 22.5 39.617 22.2366 40.0859 21.7678C40.5547 21.2989 40.8181 20.663 40.8181 20ZM29.9448 8.88167L31.5798 5.97667C31.8923 5.40008 31.9657 4.72379 31.7842 4.09358C31.6027 3.46338 31.1808 2.92973 30.6095 2.60768C30.0382 2.28562 29.3632 2.20096 28.7301 2.37193C28.0969 2.5429 27.5563 2.95582 27.2248 3.52167L25.5881 6.42667C25.4268 6.7128 25.3234 7.02793 25.2839 7.35404C25.2444 7.68015 25.2696 8.01084 25.358 8.32722C25.4463 8.6436 25.5962 8.93946 25.799 9.19788C26.0018 9.45631 26.2535 9.67224 26.5398 9.83333C26.9131 10.0456 27.3353 10.1571 27.7648 10.1567C28.2086 10.1568 28.6445 10.0388 29.0276 9.81468C29.4107 9.5906 29.7273 9.26857 29.9448 8.88167ZM14.4114 36.4783L16.0481 33.5733C16.3737 32.9956 16.4564 32.3122 16.2781 31.6735C16.0998 31.0348 15.675 30.4931 15.0973 30.1675C14.5196 29.8419 13.8362 29.7592 13.1974 29.9375C12.5587 30.1159 12.017 30.5406 11.6914 31.1183L10.0564 34.0233C9.74397 34.5999 9.67056 35.2762 9.85207 35.9064C10.0336 36.5366 10.4554 37.0703 11.0267 37.3923C11.598 37.7144 12.273 37.799 12.9062 37.6281C13.5393 37.4571 14.0799 37.0442 14.4114 36.4783ZM10.6514 14.2783C10.9769 13.7008 11.0597 13.0177 10.8815 12.3791C10.7034 11.7406 10.2789 11.199 9.70145 10.8733L6.79478 9.23833C6.21819 8.92585 5.5419 8.85245 4.9117 9.03395C4.28149 9.21546 3.74784 9.63733 3.42579 10.2086C3.10374 10.7799 3.01907 11.4549 3.19004 12.088C3.36101 12.7212 3.77393 13.2618 4.33978 13.5933L7.24478 15.23C7.53092 15.3913 7.84605 15.4947 8.17216 15.5342C8.49826 15.5737 8.82896 15.5485 9.14533 15.4602C9.46171 15.3718 9.75757 15.2219 10.016 15.0191C10.2744 14.8163 10.4904 14.5646 10.6514 14.2783ZM38.2481 29.8117C38.5736 29.2341 38.6563 28.551 38.4782 27.9125C38.3 27.2739 37.8756 26.7323 37.2981 26.4067L34.3931 24.77C34.1071 24.6088 33.792 24.5055 33.4661 24.4661C33.1401 24.4266 32.8095 24.4518 32.4933 24.54C32.177 24.6283 31.8812 24.7781 31.6228 24.9807C31.3644 25.1833 31.1485 25.4348 30.9873 25.7208C30.8261 26.0069 30.7228 26.3219 30.6834 26.6479C30.6439 26.9739 30.669 27.3044 30.7573 27.6207C30.9356 28.2594 31.3604 28.8011 31.9381 29.1267L34.8431 30.7617C35.4206 31.0871 36.1038 31.1699 36.7423 30.9917C37.3809 30.8136 37.9225 30.3891 38.2481 29.8117ZM15.0964 9.83333C15.6742 9.508 16.099 8.96649 16.2775 8.32793C16.4559 7.68937 16.3734 7.00606 16.0481 6.42833L14.4114 3.52167C14.0799 2.95582 13.5393 2.5429 12.9062 2.37193C12.273 2.20096 11.598 2.28562 11.0267 2.60768C10.4554 2.92973 10.0336 3.46338 9.85207 4.09358C9.67056 4.72379 9.74397 5.40008 10.0564 5.97667L11.6914 8.88167C11.9091 9.26826 12.2258 9.58996 12.6089 9.81373C12.992 10.0375 13.4278 10.1553 13.8714 10.155C14.3008 10.1559 14.723 10.0451 15.0964 9.83333ZM30.6298 37.43C31.2072 37.1044 31.6317 36.5627 31.8098 35.9242C31.988 35.2857 31.9052 34.6025 31.5798 34.025L29.9448 31.12C29.6192 30.5423 29.0775 30.1175 28.4388 29.9392C27.8001 29.7609 27.1167 29.8436 26.5389 30.1692C25.9612 30.4947 25.5365 31.0364 25.3582 31.6752C25.1798 32.3139 25.2626 32.9973 25.5881 33.575L27.2248 36.48C27.5504 37.0574 28.092 37.4819 28.7306 37.6601C29.3691 37.8382 30.0522 37.7555 30.6298 37.43ZM34.3914 15.23L37.2964 13.5933C37.8623 13.2618 38.2752 12.7212 38.4462 12.088C38.6172 11.4549 38.5325 10.7799 38.2104 10.2086C37.8884 9.63733 37.3547 9.21546 36.7245 9.03395C36.0943 8.85245 35.418 8.92585 34.8414 9.23833L31.9364 10.8733C31.3587 11.1989 30.934 11.7406 30.7557 12.3793C30.5773 13.018 30.6601 13.7014 30.9856 14.2792C31.3112 14.8569 31.8529 15.2816 32.4916 15.46C33.1303 15.6383 33.8137 15.5556 34.3914 15.23ZM6.79478 30.7617L9.69978 29.1267C9.98584 28.9655 10.2374 28.7495 10.44 28.4911C10.6426 28.2327 10.7923 27.9369 10.8806 27.6207C10.9689 27.3044 10.994 26.9739 10.9545 26.6479C10.9151 26.3219 10.8118 26.0069 10.6506 25.7208C10.4894 25.4348 10.2735 25.1833 10.0151 24.9807C9.75666 24.7781 9.46088 24.6283 9.14462 24.54C8.82836 24.4518 8.49781 24.4266 8.17183 24.4661C7.84586 24.5055 7.53084 24.6088 7.24478 24.77L4.33978 26.4067C3.85886 26.6784 3.48145 27.1017 3.26651 27.6105C3.05157 28.1193 3.01119 28.685 3.15169 29.2192C3.29219 29.7534 3.60565 30.2261 4.04311 30.5633C4.48058 30.9005 5.01742 31.0834 5.56978 31.0833C5.99912 31.0843 6.42132 30.9735 6.79478 30.7617Z" fill="#5A8F15"/>
</svg>
