<svg width="34" height="44" viewBox="0 0 34 44" fill="none" xmlns="http://www.w3.org/2000/svg">
<path id="icon" d="M8 11.2308H14M8 22H26M8 28.1538H26M8 34.3077H14M5 42H29C29.7956 42 30.5587 41.6758 31.1213 41.0988C31.6839 40.5218 32 39.7391 32 38.9231V5.07692C32 4.26087 31.6839 3.47824 31.1213 2.90121C30.5587 2.32417 29.7956 2 29 2H5C4.20435 2 3.44129 2.32417 2.87868 2.90121C2.31607 3.47824 2 4.26087 2 5.07692V38.9231C2 39.7391 2.31607 40.5218 2.87868 41.0988C3.44129 41.6758 4.20435 42 5 42Z" stroke="#6A0FFF" stroke-width="3" stroke-linecap="round" stroke-linejoin="round"/>
</svg>
