<svg width="40" height="40" viewBox="0 0 40 40" fill="none" xmlns="http://www.w3.org/2000/svg">
<path id="rules" d="M6.66776 10.8788C6.0107 10.8807 5.35982 10.7403 4.75278 10.4657C4.14574 10.1911 3.59458 9.78771 3.1312 9.27897L0.557955 6.77818C0.227771 6.45669 0.0280529 6.00512 0.00273628 5.52282C-0.0225803 5.04052 0.128578 4.56699 0.422959 4.2064C0.71734 3.84581 1.13083 3.6277 1.57246 3.60006C2.0141 3.57241 2.4477 3.73749 2.77788 4.05898L5.41946 6.63257C5.57068 6.81803 5.75506 6.96773 5.96124 7.07246C6.16742 7.1772 6.39105 7.23474 6.61835 7.24156C6.84566 7.24838 7.07184 7.20433 7.28297 7.11212C7.49411 7.01991 7.68573 6.88149 7.84605 6.70538L13.8525 0.460673C14.1755 0.146655 14.5976 -0.0179741 15.0297 0.00155906C15.4617 0.0210922 15.8699 0.223258 16.168 0.565355C16.4661 0.907452 16.6308 1.36269 16.6273 1.83493C16.6238 2.30716 16.4523 2.75941 16.1491 3.09615L10.1676 9.30991C9.70728 9.80974 9.16122 10.2056 8.56068 10.4748C7.96014 10.744 7.31691 10.8813 6.66776 10.8788ZM40 7.23866C40 6.75594 39.8244 6.293 39.5119 5.95167C39.1993 5.61033 38.7754 5.41858 38.3334 5.41858H21.6673C21.2253 5.41858 20.8013 5.61033 20.4888 5.95167C20.1762 6.293 20.0007 6.75594 20.0007 7.23866C20.0007 7.72137 20.1762 8.18432 20.4888 8.52565C20.8013 8.86698 21.2253 9.05874 21.6673 9.05874H38.3334C38.7754 9.05874 39.1993 8.86698 39.5119 8.52565C39.8244 8.18432 40 7.72137 40 7.23866ZM10.1676 23.8706L16.1491 17.6568C16.3161 17.4945 16.4514 17.2972 16.5471 17.0766C16.6428 16.8559 16.6969 16.6166 16.7061 16.3727C16.7153 16.1288 16.6796 15.8854 16.6009 15.6569C16.5222 15.4284 16.4023 15.2195 16.2482 15.0427C16.0941 14.8658 15.909 14.7247 15.704 14.6276C15.4989 14.5304 15.278 14.4794 15.0545 14.4774C14.831 14.4754 14.6094 14.5225 14.4029 14.616C14.1964 14.7094 14.0092 14.8473 13.8525 15.0213L7.85272 21.266C7.53545 21.5973 7.11339 21.7822 6.67442 21.7822C6.23545 21.7822 5.81339 21.5973 5.49613 21.266L2.84621 18.3812C2.53189 18.0497 2.1109 17.8662 1.67392 17.8704C1.23694 17.8745 0.818929 18.0659 0.509925 18.4034C0.200922 18.7408 0.025646 19.1973 0.0218487 19.6745C0.0180515 20.1518 0.186037 20.6115 0.489624 20.9548L3.1312 23.8396C4.06396 24.8585 5.32766 25.4335 6.64692 25.4393C7.96618 25.4451 9.23407 24.8812 10.1743 23.8706H10.1676ZM40 21.7993C40 21.3166 39.8244 20.8537 39.5119 20.5123C39.1993 20.171 38.7754 19.9792 38.3334 19.9792H21.6673C21.2253 19.9792 20.8013 20.171 20.4888 20.5123C20.1762 20.8537 20.0007 21.3166 20.0007 21.7993C20.0007 22.282 20.1762 22.745 20.4888 23.0863C20.8013 23.4276 21.2253 23.6194 21.6673 23.6194H38.3334C38.7754 23.6194 39.1993 23.4276 39.5119 23.0863C39.8244 22.745 40 22.282 40 21.7993ZM10.1676 38.4312L16.1424 32.2175C16.3094 32.0552 16.4447 31.8578 16.5404 31.6372C16.6361 31.4166 16.6902 31.1772 16.6994 30.9333C16.7087 30.6894 16.6729 30.446 16.5942 30.2175C16.5156 29.989 16.3956 29.7802 16.2415 29.6033C16.0874 29.4265 15.9024 29.2853 15.6973 29.1882C15.4922 29.0911 15.2714 29.04 15.0478 29.038C14.8243 29.036 14.6027 29.0832 14.3962 29.1766C14.1897 29.2701 14.0026 29.4079 13.8459 29.582L7.84605 35.8267C7.68573 36.0028 7.49411 36.1412 7.28297 36.2334C7.07184 36.3256 6.84566 36.3697 6.61835 36.3629C6.39105 36.3561 6.16742 36.2985 5.96124 36.1938C5.75506 36.0891 5.57068 35.9393 5.41946 35.7539L2.77788 33.1803C2.4477 32.8588 2.0141 32.6937 1.57246 32.7214C1.13083 32.749 0.71734 32.9671 0.422959 33.3277C0.128578 33.6883 -0.0225803 34.1618 0.00273628 34.6441C0.0280529 35.1264 0.227771 35.578 0.557955 35.8995L3.1312 38.4003C4.06396 39.4192 5.32766 39.9942 6.64692 40C7.96618 40.0058 9.23407 39.4419 10.1743 38.4312H10.1676ZM40 36.36C40 35.8773 39.8244 35.4143 39.5119 35.073C39.1993 34.7317 38.7754 34.5399 38.3334 34.5399H21.6673C21.2253 34.5399 20.8013 34.7317 20.4888 35.073C20.1762 35.4143 20.0007 35.8773 20.0007 36.36C20.0007 36.8427 20.1762 37.3056 20.4888 37.647C20.8013 37.9883 21.2253 38.1801 21.6673 38.1801H38.3334C38.7754 38.1801 39.1993 37.9883 39.5119 37.647C39.8244 37.3056 40 36.8427 40 36.36Z" fill="#6A0FFF"/>
</svg>
