<svg width="40" height="41" viewBox="0 0 40 41" fill="none" xmlns="http://www.w3.org/2000/svg">
<g id="server">
<path d="M1.66667 7.99627H6.22667C6.58439 9.32565 7.36529 10.4992 8.44888 11.3359C9.53247 12.1726 10.8585 12.6259 12.2225 12.6259C13.5865 12.6259 14.9125 12.1726 15.9961 11.3359C17.0797 10.4992 17.8606 9.32565 18.2183 7.99627H38.3333C38.7754 7.99627 39.1993 7.81892 39.5118 7.50323C39.8244 7.18755 40 6.75938 40 6.31294C40 5.86649 39.8244 5.43833 39.5118 5.12264C39.1993 4.80695 38.7754 4.6296 38.3333 4.6296H18.2183C17.8606 3.30022 17.0797 2.12666 15.9961 1.28999C14.9125 0.453307 13.5865 0 12.2225 0C10.8585 0 9.53247 0.453307 8.44888 1.28999C7.36529 2.12666 6.58439 3.30022 6.22667 4.6296H1.66667C1.22464 4.6296 0.800716 4.80695 0.488155 5.12264C0.175595 5.43833 0 5.86649 0 6.31294C0 6.75938 0.175595 7.18755 0.488155 7.50323C0.800716 7.81892 1.22464 7.99627 1.66667 7.99627ZM12.2217 3.3671C12.7985 3.3671 13.3624 3.53987 13.8421 3.86356C14.3217 4.18726 14.6956 4.64733 14.9163 5.18561C15.1371 5.72389 15.1948 6.3162 15.0823 6.88764C14.9698 7.45908 14.692 7.98397 14.2841 8.39595C13.8762 8.80794 13.3565 9.0885 12.7907 9.20217C12.2249 9.31583 11.6385 9.25749 11.1055 9.03453C10.5726 8.81157 10.117 8.43399 9.79655 7.94955C9.47606 7.46511 9.305 6.89557 9.305 6.31294C9.30588 5.53193 9.61346 4.78316 10.1602 4.2309C10.707 3.67864 11.4484 3.36799 12.2217 3.3671Z" fill="#6A0FFF"/>
<path d="M38.3333 18.5171H33.7733C33.4162 17.1874 32.6356 16.0134 31.5521 15.1764C30.4686 14.3394 29.1424 13.8859 27.7783 13.8859C26.4142 13.8859 25.0881 14.3394 24.0046 15.1764C22.921 16.0134 22.1405 17.1874 21.7833 18.5171H1.66667C1.22464 18.5171 0.800716 18.6945 0.488155 19.0101C0.175595 19.3258 0 19.754 0 20.2004C0 20.6469 0.175595 21.075 0.488155 21.3907C0.800716 21.7064 1.22464 21.8838 1.66667 21.8838H21.7833C22.1405 23.2135 22.921 24.3874 24.0046 25.2245C25.0881 26.0615 26.4142 26.515 27.7783 26.515C29.1424 26.515 30.4686 26.0615 31.5521 25.2245C32.6356 24.3874 33.4162 23.2135 33.7733 21.8838H38.3333C38.7754 21.8838 39.1993 21.7064 39.5118 21.3907C39.8244 21.075 40 20.6469 40 20.2004C40 19.754 39.8244 19.3258 39.5118 19.0101C39.1993 18.6945 38.7754 18.5171 38.3333 18.5171ZM27.7783 23.1463C27.2015 23.1463 26.6376 22.9735 26.1579 22.6498C25.6783 22.3261 25.3044 21.866 25.0837 21.3278C24.8629 20.7895 24.8052 20.1972 24.9177 19.6257C25.0303 19.0543 25.308 18.5294 25.7159 18.1174C26.1238 17.7054 26.6435 17.4249 27.2093 17.3112C27.7751 17.1975 28.3615 17.2559 28.8945 17.4788C29.4274 17.7018 29.883 18.0794 30.2035 18.5638C30.5239 19.0483 30.695 19.6178 30.695 20.2004C30.6941 20.9814 30.3865 21.7302 29.8398 22.2825C29.293 22.8347 28.5516 23.1454 27.7783 23.1463Z" fill="#6A0FFF"/>
<path d="M38.3333 32.4046H18.2183C17.8606 31.0752 17.0797 29.9017 15.9961 29.065C14.9125 28.2283 13.5865 27.775 12.2225 27.775C10.8585 27.775 9.53247 28.2283 8.44888 29.065C7.36529 29.9017 6.58439 31.0752 6.22667 32.4046H1.66667C1.22464 32.4046 0.800716 32.582 0.488155 32.8976C0.175595 33.2133 0 33.6415 0 34.0879C0 34.5344 0.175595 34.9625 0.488155 35.2782C0.800716 35.5939 1.22464 35.7713 1.66667 35.7713H6.22667C6.58439 37.1007 7.36529 38.2742 8.44888 39.1109C9.53247 39.9476 10.8585 40.4009 12.2225 40.4009C13.5865 40.4009 14.9125 39.9476 15.9961 39.1109C17.0797 38.2742 17.8606 37.1007 18.2183 35.7713H38.3333C38.7754 35.7713 39.1993 35.5939 39.5118 35.2782C39.8244 34.9625 40 34.5344 40 34.0879C40 33.6415 39.8244 33.2133 39.5118 32.8976C39.1993 32.582 38.7754 32.4046 38.3333 32.4046ZM12.2217 37.0338C11.6448 37.0338 11.0809 36.861 10.6013 36.5373C10.1216 36.2136 9.74777 35.7535 9.52702 35.2153C9.30626 34.677 9.2485 34.0847 9.36104 33.5132C9.47358 32.9418 9.75137 32.4169 10.1593 32.0049C10.5672 31.5929 11.0869 31.3124 11.6527 31.1987C12.2184 31.085 12.8049 31.1434 13.3378 31.3663C13.8708 31.5893 14.3263 31.9669 14.6468 32.4513C14.9673 32.9358 15.1383 33.5053 15.1383 34.0879C15.137 34.8688 14.8293 35.6173 14.2826 36.1695C13.7359 36.7216 12.9948 37.0324 12.2217 37.0338Z" fill="#6A0FFF"/>
</g>
</svg>
