<svg width="41" height="40" viewBox="0 0 41 40" fill="none" xmlns="http://www.w3.org/2000/svg">
<path id="icon" d="M40.818 16.6667C40.818 16.5451 40.8046 16.4238 40.778 16.3051L38.6113 6.52512C38.2088 4.66885 37.1802 3.00743 35.6982 1.81944C34.2162 0.63144 32.3707 -0.0108939 30.4713 0.000139814H11.1647C9.26651 -0.00936066 7.42264 0.633674 5.94198 1.82154C4.46131 3.00941 3.43377 4.66998 3.03144 6.52512L0.858117 16.3051C0.831464 16.4238 0.818049 16.5451 0.818118 16.6667V18.3334C0.816773 19.9561 1.40965 21.523 2.48478 22.7384V31.6667C2.48742 33.876 3.36625 35.9941 4.92847 37.5563C6.49069 39.1185 8.60877 39.9974 10.8181 40H30.818C33.0273 39.9974 35.1454 39.1185 36.7076 37.5563C38.2699 35.9941 39.1487 33.876 39.1513 31.6667V22.7384C40.2264 21.523 40.8193 19.9561 40.818 18.3334V16.6667ZM4.15144 16.8484L6.28476 7.24845C6.5265 6.13554 7.14312 5.13941 8.03145 4.42675C8.91977 3.71409 10.0259 3.32813 11.1647 3.33346H12.4847V8.33344C12.4847 8.77547 12.6603 9.19939 12.9729 9.51195C13.2855 9.82451 13.7094 10.0001 14.1514 10.0001C14.5934 10.0001 15.0174 9.82451 15.3299 9.51195C15.6425 9.19939 15.8181 8.77547 15.8181 8.33344V3.33346H25.818V8.33344C25.818 8.77547 25.9936 9.19939 26.3062 9.51195C26.6187 9.82451 27.0427 10.0001 27.4847 10.0001C27.9267 10.0001 28.3506 9.82451 28.6632 9.51195C28.9758 9.19939 29.1514 8.77547 29.1514 8.33344V3.33346H30.4713C31.6102 3.32813 32.7163 3.71409 33.6046 4.42675C34.493 5.13941 35.1096 6.13554 35.3513 7.24845L37.4847 16.8484V18.3334C37.4847 19.2175 37.1335 20.0653 36.5083 20.6904C35.8832 21.3155 35.0354 21.6667 34.1513 21.6667H32.4847C31.6006 21.6667 30.7528 21.3155 30.1277 20.6904C29.5025 20.0653 29.1514 19.2175 29.1514 18.3334C29.1514 17.8914 28.9758 17.4675 28.6632 17.1549C28.3506 16.8423 27.9267 16.6667 27.4847 16.6667C27.0427 16.6667 26.6187 16.8423 26.3062 17.1549C25.9936 17.4675 25.818 17.8914 25.818 18.3334C25.818 19.2175 25.4668 20.0653 24.8417 20.6904C24.2166 21.3155 23.3688 21.6667 22.4847 21.6667H19.1514C18.2673 21.6667 17.4195 21.3155 16.7944 20.6904C16.1693 20.0653 15.8181 19.2175 15.8181 18.3334C15.8181 17.8914 15.6425 17.4675 15.3299 17.1549C15.0174 16.8423 14.5934 16.6667 14.1514 16.6667C13.7094 16.6667 13.2855 16.8423 12.9729 17.1549C12.6603 17.4675 12.4847 17.8914 12.4847 18.3334C12.4847 19.2175 12.1336 20.0653 11.5084 20.6904C10.8833 21.3155 10.0355 21.6667 9.15142 21.6667H7.48476C6.60071 21.6667 5.75287 21.3155 5.12775 20.6904C4.50263 20.0653 4.15144 19.2175 4.15144 18.3334V16.8484ZM30.818 36.6667H10.8181C9.492 36.6667 8.22024 36.1399 7.28256 35.2022C6.34488 34.2645 5.8181 32.9928 5.8181 31.6667V24.7884C6.36243 24.9293 6.92248 25.0005 7.48476 25.0001H9.15142C10.0978 25.0005 11.0333 24.7991 11.8956 24.409C12.7578 24.019 13.5269 23.4494 14.1514 22.7384C14.7759 23.4494 15.545 24.019 16.4072 24.409C17.2695 24.7991 18.205 25.0005 19.1514 25.0001H22.4847C23.4311 25.0005 24.3666 24.7991 25.2289 24.409C26.0911 24.019 26.8602 23.4494 27.4847 22.7384C28.1092 23.4494 28.8783 24.019 29.7405 24.409C30.6028 24.7991 31.5383 25.0005 32.4847 25.0001H34.1513C34.7136 25.0005 35.2737 24.9293 35.818 24.7884V31.6667C35.818 32.9928 35.2912 34.2645 34.3535 35.2022C33.4159 36.1399 32.1441 36.6667 30.818 36.6667Z" fill="#5A8F15"/>
</svg>
