<svg width="11" height="25" viewBox="0 0 11 25" fill="none" xmlns="http://www.w3.org/2000/svg">
<g opacity="0.75" filter="url(#filter0_bi_1013_3854)">
<path d="M475 25H10.284V19.3125C10.284 18.9632 10.1018 18.6393 9.80333 18.4579L0 12.5L9.80333 6.54211C10.1018 6.36073 10.284 6.03679 10.284 5.68755V0H252.553H475V25Z" fill="#201E1B"/>
<path d="M475 25H10.284V19.3125C10.284 18.9632 10.1018 18.6393 9.80333 18.4579L0 12.5L9.80333 6.54211C10.1018 6.36073 10.284 6.03679 10.284 5.68755V0H252.553H475V25Z" fill="#B57571" fill-opacity="0.05"/>
<path d="M10.784 24.5H474.5V0.5H252.553H10.784V5.68755C10.784 6.21141 10.5107 6.69732 10.063 6.96939L0.962739 12.5L10.063 18.0306C10.5107 18.3027 10.784 18.7886 10.784 19.3125V24.5Z" stroke="#FF726A" stroke-opacity="0.5"/>
</g>
<defs>
<filter id="filter0_bi_1013_3854" x="-555" y="-555" width="1585" height="1135" filterUnits="userSpaceOnUse" color-interpolation-filters="sRGB">
<feFlood flood-opacity="0" result="BackgroundImageFix"/>
<feGaussianBlur in="BackgroundImageFix" stdDeviation="277.5"/>
<feComposite in2="SourceAlpha" operator="in" result="effect1_backgroundBlur_1013_3854"/>
<feBlend mode="normal" in="SourceGraphic" in2="effect1_backgroundBlur_1013_3854" result="shape"/>
<feColorMatrix in="SourceAlpha" type="matrix" values="0 0 0 0 0 0 0 0 0 0 0 0 0 0 0 0 0 0 127 0" result="hardAlpha"/>
<feOffset/>
<feGaussianBlur stdDeviation="9"/>
<feComposite in2="hardAlpha" operator="arithmetic" k2="-1" k3="1"/>
<feColorMatrix type="matrix" values="0 0 0 0 0 0 0 0 0 0 0 0 0 0 0 0 0 0 0.2 0"/>
<feBlend mode="normal" in2="shape" result="effect2_innerShadow_1013_3854"/>
</filter>
</defs>
</svg>
