<svg width="40" height="42" viewBox="0 0 40 42" fill="none" xmlns="http://www.w3.org/2000/svg">
<g id="statistics">
<path d="M38.3333 37.8342H8.33333C7.00725 37.8342 5.73548 37.3022 4.7978 36.3551C3.86012 35.4081 3.33333 34.1236 3.33333 32.7842V2.48424C3.33333 2.03779 3.15774 1.60963 2.84518 1.29394C2.53262 0.978254 2.10869 0.800903 1.66667 0.800903C1.22464 0.800903 0.800716 0.978254 0.488155 1.29394C0.175595 1.60963 0 2.03779 0 2.48424V32.7842C0.00264643 35.0157 0.88147 37.1549 2.4437 38.7328C4.00593 40.3106 6.12401 41.1982 8.33333 41.2009H38.3333C38.7754 41.2009 39.1993 41.0236 39.5118 40.7079C39.8244 40.3922 40 39.964 40 39.5176C40 39.0711 39.8244 38.643 39.5118 38.3273C39.1993 38.0116 38.7754 37.8342 38.3333 37.8342Z" fill="#6A0FFF"/>
<path d="M10 34.4676C10.442 34.4676 10.866 34.2902 11.1785 33.9745C11.4911 33.6588 11.6667 33.2307 11.6667 32.7842V21.0009C11.6667 20.5545 11.4911 20.1263 11.1785 19.8106C10.866 19.4949 10.442 19.3176 10 19.3176C9.55797 19.3176 9.13405 19.4949 8.82149 19.8106C8.50893 20.1263 8.33333 20.5545 8.33333 21.0009V32.7842C8.33333 33.2307 8.50893 33.6588 8.82149 33.9745C9.13405 34.2902 9.55797 34.4676 10 34.4676Z" fill="#6A0FFF"/>
<path d="M16.6667 17.6342V32.7842C16.6667 33.2307 16.8423 33.6588 17.1548 33.9745C17.4674 34.2902 17.8913 34.4676 18.3333 34.4676C18.7754 34.4676 19.1993 34.2902 19.5118 33.9745C19.8244 33.6588 20 33.2307 20 32.7842V17.6342C20 17.1878 19.8244 16.7596 19.5118 16.4439C19.1993 16.1283 18.7754 15.9509 18.3333 15.9509C17.8913 15.9509 17.4674 16.1283 17.1548 16.4439C16.8423 16.7596 16.6667 17.1878 16.6667 17.6342Z" fill="#6A0FFF"/>
<path d="M25 22.6842V32.7842C25 33.2307 25.1756 33.6588 25.4882 33.9745C25.8007 34.2902 26.2246 34.4676 26.6667 34.4676C27.1087 34.4676 27.5326 34.2902 27.8452 33.9745C28.1577 33.6588 28.3333 33.2307 28.3333 32.7842V22.6842C28.3333 22.2378 28.1577 21.8096 27.8452 21.4939C27.5326 21.1783 27.1087 21.0009 26.6667 21.0009C26.2246 21.0009 25.8007 21.1783 25.4882 21.4939C25.1756 21.8096 25 22.2378 25 22.6842Z" fill="#6A0FFF"/>
<path d="M33.3333 15.9509V32.7842C33.3333 33.2307 33.5089 33.6588 33.8215 33.9745C34.1341 34.2902 34.558 34.4676 35 34.4676C35.442 34.4676 35.866 34.2902 36.1785 33.9745C36.4911 33.6588 36.6667 33.2307 36.6667 32.7842V15.9509C36.6667 15.5045 36.4911 15.0763 36.1785 14.7606C35.866 14.4449 35.442 14.2676 35 14.2676C34.558 14.2676 34.1341 14.4449 33.8215 14.7606C33.5089 15.0763 33.3333 15.5045 33.3333 15.9509Z" fill="#6A0FFF"/>
<path d="M10 15.9509C10.442 15.9508 10.8658 15.7734 11.1783 15.4577L17.155 9.42125C17.4727 9.1156 17.8946 8.94511 18.3333 8.94511C18.7721 8.94511 19.194 9.1156 19.5117 9.42125L23.1317 13.0775C24.0693 14.0242 25.3408 14.556 26.6667 14.556C27.9925 14.556 29.264 14.0242 30.2017 13.0775L39.5117 3.67435C39.8153 3.35687 39.9833 2.93166 39.9795 2.49029C39.9757 2.04893 39.8004 1.62673 39.4914 1.31462C39.1824 1.00252 38.7643 0.825487 38.3273 0.821651C37.8903 0.817816 37.4693 0.987487 37.155 1.29412L27.845 10.6955C27.5325 11.0111 27.1086 11.1884 26.6667 11.1884C26.2247 11.1884 25.8009 11.0111 25.4883 10.6955L21.8683 7.04102C20.9307 6.09429 19.6592 5.56245 18.3333 5.56245C17.0075 5.56245 15.736 6.09429 14.7983 7.04102L8.82167 13.0775C8.58865 13.3129 8.42997 13.6128 8.36569 13.9393C8.30141 14.2658 8.33442 14.6042 8.46054 14.9117C8.58665 15.2192 8.80022 15.4821 9.07424 15.6671C9.34825 15.8521 9.67042 15.9508 10 15.9509Z" fill="#6A0FFF"/>
</g>
</svg>
