<svg width="30" height="30" viewBox="0 0 30 30" fill="none" xmlns="http://www.w3.org/2000/svg">
<g id="telegram">
<path id="background" d="M15 0C6.71572 0 0 6.71572 0 15C0 23.2843 6.71572 30 15 30C23.2843 30 30 23.2843 30 15C30 6.71572 23.2843 0 15 0Z" fill="#5A8F15"/>
<path id="icon" fill-rule="evenodd" clip-rule="evenodd" d="M9.82162 14.8129C13.0422 13.4061 15.1862 12.4714 16.2628 12.0179C19.3269 10.7314 19.971 10.5093 20.3851 10.5C20.4771 10.5 20.6795 10.5185 20.8175 10.6296C20.928 10.7221 20.9556 10.8424 20.974 10.935C20.9924 11.0275 21.0108 11.2219 20.9924 11.37C20.8267 13.1285 20.109 17.3951 19.741 19.3572C19.5845 20.1902 19.2809 20.4678 18.9864 20.4956C18.3423 20.5511 17.8546 20.0699 17.2381 19.6626C16.2628 19.024 15.7199 18.6261 14.7721 17.9967C13.6771 17.2748 14.3856 16.8768 15.0113 16.229C15.177 16.0624 18.0019 13.4709 18.0571 13.2395C18.0663 13.2118 18.0663 13.1007 18.0019 13.0452C17.9374 12.9896 17.8454 13.0082 17.7718 13.0267C17.6706 13.0452 16.1247 14.0818 13.1158 16.1272C12.6741 16.4326 12.2785 16.5807 11.9196 16.5714C11.5239 16.5621 10.7694 16.3493 10.1989 16.1642C9.50877 15.9421 8.95667 15.8217 9.00268 15.433C9.03029 15.2294 9.30633 15.0258 9.82162 14.8129Z" fill="#ECE7E6"/>
</g>
</svg>
