<svg width="26" height="25" viewBox="0 0 26 25" fill="none" xmlns="http://www.w3.org/2000/svg">
<path id="telegram" fill-rule="evenodd" clip-rule="evenodd" d="M13 0C6.09687 0 0.5 5.59687 0.5 12.5C0.5 19.4031 6.09687 25 13 25C19.9031 25 25.5 19.4031 25.5 12.5C25.5 5.59687 19.9031 0 13 0ZM18.7937 8.50104C18.6062 10.4771 17.7917 15.274 17.3781 17.4875C17.2031 18.425 16.8573 18.7385 16.524 18.7687C15.7979 18.8354 15.2469 18.2885 14.5437 17.8281C13.4437 17.1073 12.8219 16.6583 11.7542 15.9542C10.5198 15.1406 11.3198 14.6937 12.0229 13.9635C12.2073 13.7719 15.4052 10.8625 15.4677 10.599C15.475 10.5656 15.4833 10.4427 15.4094 10.3781C15.3354 10.3135 15.2281 10.3354 15.151 10.3531C15.0406 10.3781 13.2833 11.5396 9.87813 13.8375C9.37917 14.1802 8.92708 14.3469 8.52188 14.3385C8.07604 14.3292 7.21771 14.0865 6.57917 13.8781C5.79688 13.624 5.17396 13.4885 5.22812 13.0573C5.25625 12.8323 5.56563 12.6021 6.15729 12.3667C9.80104 10.7792 12.2312 9.73229 13.4469 9.22604C16.9187 7.78229 17.6396 7.53125 18.1104 7.52292C18.7 7.51458 18.8417 8.00104 18.7937 8.50104Z" fill="#405CEF"/>
</svg>
