<svg width="41" height="40" viewBox="0 0 41 40" fill="none" xmlns="http://www.w3.org/2000/svg">
<path id="icon" d="M15.8192 19.9992C21.334 19.9992 25.8188 15.5144 25.8188 9.99958C25.8188 4.48481 21.334 0 15.8192 0C10.3044 0 5.81962 4.48481 5.81962 9.99958C5.81962 15.5144 10.3044 19.9992 15.8192 19.9992ZM15.8192 3.33319C19.4957 3.33319 22.4856 6.32307 22.4856 9.99958C22.4856 13.6761 19.4957 16.666 15.8192 16.666C12.1427 16.666 9.15281 13.6761 9.15281 9.99958C9.15281 6.32307 12.1427 3.33319 15.8192 3.33319ZM18.7357 27.0322C17.7891 26.7889 16.8075 26.6656 15.8192 26.6656C9.38613 26.6656 4.15302 31.8987 4.15302 38.3317C4.15302 39.2517 3.40638 39.9983 2.48642 39.9983C1.56646 39.9983 0.819824 39.2517 0.819824 38.3317C0.819824 30.0621 7.54954 23.3324 15.8192 23.3324C17.0891 23.3324 18.3508 23.4907 19.569 23.8057C20.4607 24.0357 20.9956 24.944 20.7673 25.8356C20.539 26.7272 19.634 27.2622 18.7374 27.0339L18.7357 27.0322ZM39.3532 19.7975C37.4633 17.9076 34.1701 17.9076 32.2818 19.7975L21.104 30.9754C19.8457 32.2337 19.1507 33.9086 19.1507 35.6902V38.3334C19.1507 39.2534 19.8974 40 20.8173 40H23.4605C25.2421 40 26.9154 39.305 28.1737 38.0467L39.3516 26.8689C40.2965 25.9239 40.8165 24.669 40.8165 23.3324C40.8165 21.9958 40.2965 20.7408 39.3532 19.7975ZM36.995 24.5106L25.8154 35.6885C25.1871 36.3185 24.3505 36.6651 23.4589 36.6651H22.4823V35.6885C22.4823 34.7985 22.8289 33.9619 23.4589 33.3319L34.6384 22.1541C35.2667 21.5241 36.365 21.5241 36.995 22.1541C37.31 22.4674 37.4833 22.8857 37.4833 23.3324C37.4833 23.779 37.31 24.1957 36.995 24.5106Z" fill="#5A8F15"/>
</svg>
