<svg width="30" height="30" viewBox="0 0 30 30" fill="none" xmlns="http://www.w3.org/2000/svg">
<g id="vk">
<path id="background" d="M0.75 15C0.75 7.12994 7.12994 0.75 15 0.75C22.8701 0.75 29.25 7.12994 29.25 15C29.25 22.8701 22.8701 29.25 15 29.25C7.12994 29.25 0.75 22.8701 0.75 15Z" stroke="#405CEF" stroke-width="1.5"/>
<path id="icon" d="M16.0505 19.5C11.7263 19.5 9.10203 16.4944 9 11.5H11.1901C11.2584 15.1688 12.9245 16.7257 14.2018 17.0431V11.5H16.3014V14.6654C17.5333 14.5286 18.8221 13.0885 19.2563 11.5H21.3206C20.9899 13.4543 19.5869 14.8944 18.5942 15.4885C19.5869 15.9688 21.184 17.226 21.8 19.5H19.5301C19.0507 17.9799 17.8755 16.8026 16.3014 16.6427V19.5H16.0505Z" fill="white"/>
</g>
</svg>
