<svg width="26" height="25" viewBox="0 0 26 25" fill="none" xmlns="http://www.w3.org/2000/svg">
<path id="vk" fill-rule="evenodd" clip-rule="evenodd" d="M2.25417 1.75417C0.5 3.50885 0.5 6.33229 0.5 11.9792V13.0208C0.5 18.6677 0.5 21.4911 2.25417 23.2458C4.00885 25 6.83229 25 12.4792 25H13.5208C19.1677 25 21.9911 25 23.7458 23.2458C25.5 21.4917 25.5 18.6677 25.5 13.0208V11.9792C25.5 6.33229 25.5 3.50885 23.7458 1.75417C21.9917 0 19.1677 0 13.5208 0H12.4792H12.4741C6.83062 0 4.00781 0 2.25417 1.75417ZM5.4353 7.65315H7.25822C7.72384 7.65315 7.89937 7.85628 8.07437 8.36201C8.96603 10.9589 10.4692 13.2287 11.0869 13.2287C11.3192 13.2287 11.4254 13.1219 11.4254 12.5334V9.84846C11.3835 9.08467 11.1167 8.75427 10.9191 8.50956C10.7971 8.35846 10.7014 8.24004 10.7014 8.07242C10.7014 7.86826 10.8754 7.65315 11.165 7.65315H14.0296C14.4155 7.65315 14.5504 7.85992 14.5504 8.32347V11.9349C14.5504 12.3209 14.7181 12.4563 14.8337 12.4563C15.0655 12.4563 15.2587 12.3209 15.6837 11.8959C16.9968 10.4282 17.9238 8.16878 17.9238 8.16878C18.0395 7.89794 18.253 7.65315 18.7166 7.65315H20.5389C21.091 7.65315 21.2067 7.93701 21.091 8.32347C20.8587 9.38544 18.6379 12.5141 18.6379 12.5141C18.4452 12.8229 18.3671 12.9776 18.6379 13.325C18.7331 13.4585 18.9367 13.658 19.1696 13.8863C19.4084 14.1202 19.678 14.3844 19.8931 14.6386C20.6764 15.5193 21.2666 16.2625 21.4306 16.7745C21.5811 17.2886 21.3207 17.549 20.7999 17.549H18.977C18.4887 17.549 18.2429 17.2755 17.7119 16.6847C17.4867 16.4341 17.2102 16.1264 16.8421 15.7584C15.7608 14.7157 15.2973 14.5802 15.0264 14.5802C14.6593 14.5802 14.5499 14.6844 14.5499 15.2052V16.8401C14.5499 17.2886 14.4067 17.549 13.2478 17.549C11.3166 17.549 9.19416 16.3766 7.68791 14.2136C5.42801 11.0464 4.8103 8.65159 4.8103 8.16878C4.8103 7.89794 4.91447 7.65315 5.4353 7.65315Z" fill="#405CEF"/>
</svg>
