<svg width="36" height="25" viewBox="0 0 36 25" fill="none" xmlns="http://www.w3.org/2000/svg">
<path id="youtube" fill-rule="evenodd" clip-rule="evenodd" d="M31.6742 0.746371C33.1802 1.15706 34.3661 2.36714 34.7686 3.90383C35.5 6.68897 35.5 12.5 35.5 12.5C35.5 12.5 35.5 18.3109 34.7686 21.0964C34.3661 22.6329 33.1802 23.8429 31.6742 24.2538C28.9448 25 18 25 18 25C18 25 7.0552 25 4.32572 24.2538C2.81986 23.8429 1.63383 22.6329 1.23137 21.0964C0.5 18.3109 0.5 12.5 0.5 12.5C0.5 12.5 0.5 6.68897 1.23137 3.90383C1.63383 2.36714 2.81986 1.15706 4.32572 0.746371C7.0552 0 18 0 18 0C18 0 28.9448 0 31.6742 0.746371ZM23.5686 12.5003L14.4209 17.7761V7.22414L23.5686 12.5003Z" fill="#405CEF"/>
</svg>
