<svg width="70" height="50" viewBox="0 0 70 50" fill="none" xmlns="http://www.w3.org/2000/svg">
<path fill-rule="evenodd" clip-rule="evenodd" d="M62.3485 1.49274C65.3605 2.31412 67.7321 4.73428 68.5371 7.80767C70 13.378 70 25 70 25C70 25 70 36.6219 68.5371 42.1927C67.7321 45.2658 65.3605 47.6859 62.3485 48.5076C56.8897 50 35 50 35 50C35 50 13.1104 50 7.65144 48.5076C4.63973 47.6859 2.26767 45.2658 1.46273 42.1927C0 36.6219 0 25 0 25C0 25 0 13.378 1.46273 7.80767C2.26767 4.73428 4.63973 2.31412 7.65144 1.49274C13.1104 7.69092e-07 35 0 35 0C35 0 56.8897 7.69092e-07 62.3485 1.49274ZM46.1375 25.0007L27.8421 35.5522V14.4483L46.1375 25.0007Z" fill="#405CEF"/>
</svg>
